<svg width="20" height="18" viewBox="0 0 20 18" fill="none" xmlns="http://www.w3.org/2000/svg">
<path d="M8.69066 2.73717L2.20522 13.5641C2.07151 13.7957 2.00075 14.0582 2.00001 14.3256C1.99926 14.593 2.06854 14.8559 2.20095 15.0882C2.33337 15.3205 2.52431 15.5141 2.75477 15.6497C2.98523 15.7853 3.24718 15.8582 3.51456 15.8612H16.4854C16.7528 15.8582 17.0148 15.7853 17.2452 15.6497C17.4757 15.5141 17.6666 15.3205 17.799 15.0882C17.9315 14.8559 18.0007 14.593 18 14.3256C17.9992 14.0582 17.9285 13.7957 17.7948 13.5641L11.3093 2.73717C11.1728 2.51214 10.9806 2.32608 10.7513 2.19696C10.522 2.06783 10.2632 2 10 2C9.7368 2 9.47805 2.06783 9.2487 2.19696C9.01936 2.32608 8.82716 2.51214 8.69066 2.73717Z" stroke="#FFB800" stroke-width="2.5" stroke-linecap="round" stroke-linejoin="round"/>
<path d="M10 6.67188V9.73466" stroke="#FFB800" stroke-width="2.5" stroke-linecap="round" stroke-linejoin="round"/>
<path d="M10 12.7969H10.0086" stroke="#FFB800" stroke-width="2.5" stroke-linecap="round" stroke-linejoin="round"/>
</svg>
